
<svg xmlns="http://www.w3.org/2000/svg" version="1.1" xmlns:xlink="http://www.w3.org/1999/xlink" preserveAspectRatio="none" x="0px" y="0px" width="635px" height="190px" viewBox="0 0 635 190">
<defs>
<g id="Layer0_0_FILL">
<path fill="#552624" stroke="none" d="
M 190.75 96.1
L 168.25 94.95 168.25 5.5 1.5 5.5 1.5 182.35 168.25 182.35 168.25 175.95
Q 178 177.2 184.9 170.75
L 199.4 175.1
Q 208.8 176.95 219.6 174.5 239.1 166.4 246.45 152.65 259.15 129.15 246.45 106.55 241.45 95.55 225.6 91.35 214.95 88.8 205.1 91.35
L 190.75 96.1
M 168.25 97.65
L 178.1 98.75
Q 181.25 99.95 182.2 108.1 184.25 141.1 180.95 165.2 177.25 175.2 168.25 171.3
L 168.25 97.65
M 200.1 96.45
Q 209.55 92.15 219.6 96.45 232.4 104.85 235.55 114.7 241.1 132.2 235.75 151.7 231.55 166.8 217.3 170.2 208.45 173.1 203.6 169.8 197.95 166.45 196.45 163.85 193.95 137.6 196.45 103.25 196.9 99.35 200.1 96.45
M 147.75 14.9
Q 151.65 18.1 146.2 21.75 142.4 22.85 118.15 25.15 117.65 26.85 120.2 49.6 122.5 70.25 141.75 151.65 143.7 159.95 145.85 168.85 147.05 169.95 150.2 170.45 152.75 170.8 156.6 170.75 157.9 170.7 159.4 170.65 161 172.95 160.65 176.35 158.65 176.15 156.6 176.05 153.4 175.8 150.2 175.6 128.6 174.45 106.6 176.35 103.75 174.75 105.5 171.65
L 114.45 170.1
Q 113.35 160.9 112.05 151.65 108.85 129.3 104.2 106.95 79.7 103.55 56.8 106.95 49.7 132.1 48.8 151.65 48.75 152.8 48.7 153.9 49.35 163.25 54.55 164.35 62.4 168.2 72.9 166.45 69.6 173.35 58.25 176.25 35.65 172.9 13.8 175.95 12.8 176.1 11.8 176.25
L 10.75 172.9
Q 12.3 172.6 13.8 172 23.15 168.05 30.3 151.65 31.75 148.3 33.1 144.4
L 42.95 113.95
Q 54.55 72.4 59.8 34.65
L 78.45 23.95
Q 29.75 22.7 28.65 20.25 25.3 12.9 28.65 11.65 51.95 17.8 86.55 18.7 124.35 18.95 147.75 14.9
M 87.4 26.4
Q 86.25 25.4 84.15 26.4 68.8 49.45 58 99.1
L 101.1 91.7
Q 92.85 33.5 87.4 26.4 Z"/>

<path fill="#FF0000" stroke="none" d="
M 146.2 21.75
Q 151.65 18.1 147.75 14.9 124.35 18.95 86.55 18.7 51.95 17.8 28.65 11.65 25.3 12.9 28.65 20.25 29.75 22.7 78.45 23.95
L 59.8 34.65
Q 54.55 72.4 42.95 113.95
L 33.1 144.4
Q 31.75 148.3 30.3 151.65 23.15 168.05 13.8 172 12.3 172.6 10.75 172.9
L 11.8 176.25
Q 12.8 176.1 13.8 175.95 35.65 172.9 58.25 176.25 69.6 173.35 72.9 166.45 62.4 168.2 54.55 164.35 49.35 163.25 48.7 153.9 48.75 152.8 48.8 151.65 49.7 132.1 56.8 106.95 79.7 103.55 104.2 106.95 108.85 129.3 112.05 151.65 113.35 160.9 114.45 170.1
L 105.5 171.65
Q 103.75 174.75 106.6 176.35 128.6 174.45 150.2 175.6 153.4 175.8 156.6 176.05 158.65 176.15 160.65 176.35 161 172.95 159.4 170.65 157.9 170.7 156.6 170.75 152.75 170.8 150.2 170.45 147.05 169.95 145.85 168.85 143.7 159.95 141.75 151.65 122.5 70.25 120.2 49.6 117.65 26.85 118.15 25.15 142.4 22.85 146.2 21.75
M 84.15 26.4
Q 86.25 25.4 87.4 26.4 92.85 33.5 101.1 91.7
L 58 99.1
Q 68.8 49.45 84.15 26.4 Z"/>

<path fill="#572927" stroke="none" d="
M 259.05 93.6
Q 256.8 94.35 258.75 97.2
L 267.6 97.2
Q 270.7 97.9 270.65 99.2 273.55 135.4 267.85 169.4 262.9 172.05 256.1 171.55 254.5 172.65 256.1 174.1
L 296 174.1
Q 299.85 172.05 297.9 171.3 290.8 171.65 285.1 168.95 281.7 114.25 286.85 98
L 295.4 96.85
Q 298.2 94.05 295.65 93.6 283.3 95 259.05 93.6
M 352.55 94.3
Q 350.25 95.35 351.9 97.8 359.45 96.8 364.15 99.15 365.7 108.9 366 126.55
L 364.75 144.5
Q 364.3 152.15 361.55 158.25 356.2 169.7 340.65 168.75 330.25 166.9 327.25 162.2 307.2 130.5 329.45 98.85
L 332.35 95.1 303.7 93.55
Q 301.15 93.8 301.1 104.65 306.7 98.9 320.85 99.7 288.25 144.8 316.25 169.05 321 173.25 336.3 174.95 351.5 175.8 362.95 165.25
L 362.95 172.1
Q 363.1 173.65 365 174.15
L 375.75 173.05
Q 377.45 175.8 382.25 177.05
L 386.3 177.05
Q 388.7 176.6 388.35 175.4
L 383.65 174.8
Q 380.5 174 379.5 172.45 377.1 164.25 377.85 156.05
L 377.85 125.6
Q 377.95 106.6 380.7 97.95
L 388.15 97.2
Q 389.9 95.95 388.15 94.3 371.15 95.3 352.55 94.3
M 583.25 175.8
L 598.2 160.9 583 146.2 567.65 160.2 583.25 175.8
M 532.2 96.5
Q 535.6 94.55 532.2 93.15 501.1 97.55 472.35 91.85
L 471.7 94.85 447.8 94.25 447.8 96.4 458.5 97.85
Q 461.6 114.2 437.9 157.15
L 421.25 116.35 415.5 97.65 421.5 97.65
Q 423.2 97.55 424.35 97.3 426.15 96.75 426.25 95.3 426.3 94.35 424.2 94 408.1 95.3 389.7 94.5
L 389.7 97.1 397.1 97.95
Q 411.65 135.9 430.85 176.25 441.75 165.35 459.1 128
L 473.9 98.6 480.9 96.85 498.05 97.9 488.25 103.15
Q 483 141.55 468.95 170.35
L 463.05 173.35 463.05 175.1
Q 474.5 173.15 488.35 175.1
L 494.55 170.1
Q 480.95 173.3 482.3 160.2
L 486.4 140.5
Q 496.75 137.3 510.65 139.2
L 516.45 172.1 511.45 172.1 511.45 175.1
Q 526.2 173.5 539.65 175.1
L 539.65 171.95 532.45 171.95 527.2 155.65 517.4 97.9 532.2 96.5
M 487.55 135.8
Q 492.3 109.35 500 99.2 501.85 97.95 502.8 99.2
L 510.05 132.3 487.55 135.8
M 594.7 83
Q 596.4 75.1 594.7 67.15
L 588.85 31 567.4 57.1
Q 580.55 76.9 577.7 121.7 587.95 105.85 594.7 83 Z"/>
</g>
</defs>

<g transform="matrix( 1, 0, 0, 1, 0,0) ">
<use xlink:href="#Layer0_0_FILL"/>
</g>
</svg>
