
<svg xmlns="http://www.w3.org/2000/svg" version="1.1" xmlns:xlink="http://www.w3.org/1999/xlink" preserveAspectRatio="none" x="0px" y="0px" width="635px" height="190px" viewBox="0 0 635 190">
<defs>
<g id="Layer0_0_FILL">
<path fill="#552624" stroke="none" d="
M 217.1 91.35
L 202.75 96.1 180.25 94.95 180.25 5.5 13.5 5.5 13.5 182.35 180.25 182.35 180.25 175.95
Q 190 177.2 196.9 170.75
L 211.4 175.1
Q 220.8 176.95 231.6 174.5 251.1 166.4 258.45 152.65 271.15 129.15 258.45 106.55 253.45 95.55 237.6 91.35 226.95 88.8 217.1 91.35
M 180.25 97.65
L 190.1 98.75
Q 193.25 99.95 194.2 108.1 196.25 141.1 192.95 165.2 189.25 175.2 180.25 171.3
L 180.25 97.65
M 212.1 96.45
Q 221.55 92.15 231.6 96.45 244.4 104.85 247.55 114.7 253.1 132.2 247.75 151.7 243.55 166.8 229.3 170.2 220.45 173.1 215.6 169.8 209.95 166.45 208.45 163.85 205.95 137.6 208.45 103.25 208.9 99.35 212.1 96.45
M 171.4 170.65
Q 173 172.95 172.65 176.35 170.65 176.15 168.6 176.05 165.4 175.8 162.2 175.6 140.6 174.45 118.6 176.35 115.75 174.75 117.5 171.65
L 126.45 170.1
Q 125.35 160.9 124.05 151.65 120.85 129.3 116.2 106.95 91.7 103.55 68.8 106.95 61.7 132.1 60.8 151.65 60.75 152.8 60.7 153.9 61.35 163.25 66.55 164.35 74.4 168.2 84.9 166.45 81.6 173.35 70.25 176.25 47.65 172.9 25.8 175.95 24.8 176.1 23.8 176.25
L 22.75 172.9
Q 24.3 172.6 25.8 172 35.15 168.05 42.3 151.65 43.75 148.3 45.1 144.4
L 54.95 113.95
Q 66.55 72.4 71.8 34.65
L 90.45 23.95
Q 41.75 22.7 40.65 20.25 37.3 12.9 40.65 11.65 63.95 17.8 98.55 18.7 136.35 18.95 159.75 14.9 163.65 18.1 158.2 21.75 154.4 22.85 130.15 25.15 129.65 26.85 132.2 49.6 134.5 70.25 153.75 151.65 155.7 159.95 157.85 168.85 159.05 169.95 162.2 170.45 164.75 170.8 168.6 170.75 169.9 170.7 171.4 170.65
M 99.4 26.4
Q 98.25 25.4 96.15 26.4 80.8 49.45 70 99.1
L 113.1 91.7
Q 104.85 33.5 99.4 26.4 Z"/>

<path fill="#FE0200" stroke="none" d="
M 172.65 176.35
Q 173 172.95 171.4 170.65 169.9 170.7 168.6 170.75 164.75 170.8 162.2 170.45 159.05 169.95 157.85 168.85 155.7 159.95 153.75 151.65 134.5 70.25 132.2 49.6 129.65 26.85 130.15 25.15 154.4 22.85 158.2 21.75 163.65 18.1 159.75 14.9 136.35 18.95 98.55 18.7 63.95 17.8 40.65 11.65 37.3 12.9 40.65 20.25 41.75 22.7 90.45 23.95
L 71.8 34.65
Q 66.55 72.4 54.95 113.95
L 45.1 144.4
Q 43.75 148.3 42.3 151.65 35.15 168.05 25.8 172 24.3 172.6 22.75 172.9
L 23.8 176.25
Q 24.8 176.1 25.8 175.95 47.65 172.9 70.25 176.25 81.6 173.35 84.9 166.45 74.4 168.2 66.55 164.35 61.35 163.25 60.7 153.9 60.75 152.8 60.8 151.65 61.7 132.1 68.8 106.95 91.7 103.55 116.2 106.95 120.85 129.3 124.05 151.65 125.35 160.9 126.45 170.1
L 117.5 171.65
Q 115.75 174.75 118.6 176.35 140.6 174.45 162.2 175.6 165.4 175.8 168.6 176.05 170.65 176.15 172.65 176.35
M 96.15 26.4
Q 98.25 25.4 99.4 26.4 104.85 33.5 113.1 91.7
L 70 99.1
Q 80.8 49.45 96.15 26.4 Z"/>

<path fill="#572927" stroke="none" d="
M 271.05 93.6
Q 268.8 94.35 270.75 97.2
L 279.6 97.2
Q 282.7 97.9 282.65 99.2 285.55 135.4 279.85 169.4 274.9 172.05 268.1 171.55 266.5 172.65 268.1 174.1
L 308 174.1
Q 311.85 172.05 309.9 171.3 302.8 171.65 297.1 168.95 293.7 114.25 298.85 98
L 307.4 96.85
Q 310.2 94.05 307.65 93.6 295.3 95 271.05 93.6
M 341.45 98.85
L 344.35 95.1 315.7 93.55
Q 313.15 93.8 313.1 104.65 318.7 98.9 332.85 99.7 300.25 144.8 328.25 169.05 333 173.25 348.3 174.95 363.5 175.8 374.95 165.25
L 374.95 172.1
Q 375.1 173.65 377 174.15
L 387.75 173.05
Q 389.45 175.8 394.25 177.05
L 398.3 177.05
Q 400.7 176.6 400.35 175.4
L 395.65 174.8
Q 392.5 174 391.5 172.45 389.1 164.25 389.85 156.05
L 389.85 125.6
Q 389.95 106.6 392.7 97.95
L 400.15 97.2
Q 401.9 95.95 400.15 94.3 383.15 95.3 364.55 94.3 362.25 95.35 363.9 97.8 371.45 96.8 376.15 99.15 377.7 108.9 378 126.55
L 376.75 144.5
Q 376.3 152.15 373.55 158.25 368.2 169.7 352.65 168.75 342.25 166.9 339.25 162.2 319.2 130.5 341.45 98.85
M 579.65 160.2
L 595.25 175.8 610.2 160.9 595 146.2 579.65 160.2
M 492.9 96.85
L 510.05 97.9 500.25 103.15
Q 495 141.55 480.95 170.35
L 475.05 173.35 475.05 175.1
Q 486.5 173.15 500.35 175.1
L 506.55 170.1
Q 492.95 173.3 494.3 160.2
L 498.4 140.5
Q 508.75 137.3 522.65 139.2
L 528.45 172.1 523.45 172.1 523.45 175.1
Q 538.2 173.5 551.65 175.1
L 551.65 171.95 544.45 171.95 539.2 155.65 529.4 97.9 544.2 96.5
Q 547.6 94.55 544.2 93.15 513.1 97.55 484.35 91.85
L 483.7 94.85 459.8 94.25 459.8 96.4 470.5 97.85
Q 473.6 114.2 449.9 157.15
L 433.25 116.35 427.5 97.65 433.5 97.65
Q 435.2 97.55 436.35 97.3 438.15 96.75 438.25 95.3 438.3 94.35 436.2 94 420.1 95.3 401.7 94.5
L 401.7 97.1 409.1 97.95
Q 423.65 135.9 442.85 176.25 453.75 165.35 471.1 128
L 485.9 98.6 492.9 96.85
M 514.8 99.2
L 522.05 132.3 499.55 135.8
Q 504.3 109.35 512 99.2 513.85 97.95 514.8 99.2
M 606.7 83
Q 608.4 75.1 606.7 67.15
L 600.85 31 579.4 57.1
Q 592.55 76.9 589.7 121.7 599.95 105.85 606.7 83 Z"/>
</g>
</defs>

<g transform="matrix( 1, 0, 0, 1, 0,0) ">
<use xlink:href="#Layer0_0_FILL"/>
</g>
</svg>
